<svg width="50" height="50" viewBox="0 0 50 50" fill="none" xmlns="http://www.w3.org/2000/svg">
<circle opacity="0.2" cx="25" cy="25" r="25" fill="#32B561"/>
<path d="M35 24.0799V24.9999C34.9988 27.1563 34.3005 29.2545 33.0093 30.9817C31.7182 32.7088 29.9033 33.9723 27.8354 34.5838C25.7674 35.1952 23.5573 35.1218 21.5345 34.3744C19.5117 33.6271 17.7847 32.246 16.611 30.4369C15.4373 28.6279 14.8798 26.4879 15.0217 24.3362C15.1636 22.1844 15.9972 20.1362 17.3983 18.4969C18.7994 16.8577 20.6928 15.7152 22.7962 15.24C24.8996 14.7648 27.1003 14.9822 29.07 15.8599" stroke="#32B561" stroke-width="2" stroke-linecap="round" stroke-linejoin="round"/>
<path d="M35 17L25 27.01L22 24.01" stroke="#0DBA26" stroke-width="2" stroke-linecap="round" stroke-linejoin="round"/>
</svg>
