<svg width="34" height="34" viewBox="0 0 34 34" fill="none" xmlns="http://www.w3.org/2000/svg">
<path d="M33.2718 16.7363C33.3984 16.5366 33.4512 16.3205 33.4313 16.0882C33.4237 15.7911 33.3063 15.5397 33.0783 15.3343C32.9433 15.2126 32.7945 15.1317 32.6313 15.0919L9.12389 8.58989C8.87873 8.5221 8.64266 8.53829 8.41443 8.63862C8.18624 8.73906 8.00962 8.90124 7.88457 9.12461C7.75937 9.34833 7.71961 9.58363 7.76403 9.83108C7.80915 10.0779 7.9244 10.2853 8.11007 10.4527L15.4021 17.0245L8.82991 24.3169C8.66238 24.5028 8.56931 24.7208 8.54998 24.9712C8.53095 25.2217 8.59502 25.4519 8.7428 25.6613C8.81228 25.7539 8.8679 25.8196 8.91002 25.8576C9.24756 26.1618 9.62134 26.2311 10.0311 26.0647L32.7389 17.1622C32.9677 17.078 33.1451 16.9358 33.2718 16.7363Z" fill="#0DBA26"/>
</svg>
